<?xml version="1.0" encoding="utf-8"?>
<!-- Generator: Adobe Illustrator 21.1.0, SVG Export Plug-In . SVG Version: 6.00 Build 0)  -->
<svg version="1.1" id="Layer_1" xmlns="http://www.w3.org/2000/svg" xmlns:xlink="http://www.w3.org/1999/xlink" x="0px" y="0px"
	 viewBox="0 0 29.87 29.87" style="enable-background:new 0 0 29.87 29.87;" xml:space="preserve">
<style type="text/css">
	.st0{fill:#FFFFFF;}
</style>
<g>
	<g>
		<path class="st0" d="M14.94,26.32c-6.28,0-11.38-5.11-11.38-11.38c0-6.28,5.11-11.38,11.38-11.38c6.28,0,11.38,5.11,11.38,11.38
			C26.32,21.21,21.21,26.32,14.94,26.32z M14.94,5.57c-5.17,0-9.37,4.2-9.37,9.37c0,5.17,4.2,9.37,9.37,9.37
			c5.17,0,9.37-4.2,9.37-9.37C24.31,9.77,20.1,5.57,14.94,5.57z"/>
	</g>
	<g>
		<path class="st0" d="M14.94,29.87C6.7,29.87,0,23.17,0,14.94S6.7,0,14.94,0c8.24,0,14.94,6.7,14.94,14.94S23.17,29.87,14.94,29.87
			z M14.94,2.01c-7.13,0-12.92,5.8-12.92,12.92c0,7.13,5.8,12.92,12.92,12.92s12.92-5.8,12.92-12.92
			C27.86,7.81,22.06,2.01,14.94,2.01z"/>
	</g>
	<g>
		<path class="st0" d="M16.76,14.94c0,1.01-0.82,1.83-1.82,1.83c-1.01,0-1.83-0.82-1.83-1.83s0.82-1.82,1.83-1.82
			C15.94,13.11,16.76,13.93,16.76,14.94"/>
	</g>
	<g>
		<polygon class="st0" points="18.84,21.24 13.91,15.26 13.91,7.85 15.92,7.85 15.92,14.54 20.39,19.96 		"/>
	</g>
</g>
</svg>
